%TF.GenerationSoftware,KiCad,Pcbnew,10.0.1*%
%TF.CreationDate,2026-04-20T14:17:02+07:00*%
%TF.ProjectId,04_Toksisitas_v2.3 (LoRa),30345f54-6f6b-4736-9973-697461735f76,rev?*%
%TF.SameCoordinates,Original*%
%TF.FileFunction,Soldermask,Bot*%
%TF.FilePolarity,Negative*%
%FSLAX46Y46*%
G04 Gerber Fmt 4.6, Leading zero omitted, Abs format (unit mm)*
G04 Created by KiCad (PCBNEW 10.0.1) date 2026-04-20 14:17:02*
%MOMM*%
%LPD*%
G01*
G04 APERTURE LIST*
G04 Aperture macros list*
%AMRoundRect*
0 Rectangle with rounded corners*
0 $1 Rounding radius*
0 $2 $3 $4 $5 $6 $7 $8 $9 X,Y pos of 4 corners*
0 Add a 4 corners polygon primitive as box body*
4,1,4,$2,$3,$4,$5,$6,$7,$8,$9,$2,$3,0*
0 Add four circle primitives for the rounded corners*
1,1,$1+$1,$2,$3*
1,1,$1+$1,$4,$5*
1,1,$1+$1,$6,$7*
1,1,$1+$1,$8,$9*
0 Add four rect primitives between the rounded corners*
20,1,$1+$1,$2,$3,$4,$5,0*
20,1,$1+$1,$4,$5,$6,$7,0*
20,1,$1+$1,$6,$7,$8,$9,0*
20,1,$1+$1,$8,$9,$2,$3,0*%
G04 Aperture macros list end*
%ADD10RoundRect,0.101600X-0.850000X-0.850000X0.850000X-0.850000X0.850000X0.850000X-0.850000X0.850000X0*%
%ADD11C,1.903200*%
%ADD12RoundRect,0.101600X0.850000X-0.850000X0.850000X0.850000X-0.850000X0.850000X-0.850000X-0.850000X0*%
%ADD13RoundRect,0.101600X1.000000X-1.000000X1.000000X1.000000X-1.000000X1.000000X-1.000000X-1.000000X0*%
%ADD14C,2.203200*%
%ADD15RoundRect,0.313166X0.663434X-0.438434X0.663434X0.438434X-0.663434X0.438434X-0.663434X-0.438434X0*%
%ADD16O,1.953200X1.503200*%
%ADD17RoundRect,0.313166X-0.663434X0.438434X-0.663434X-0.438434X0.663434X-0.438434X0.663434X0.438434X0*%
%ADD18C,1.803200*%
%ADD19RoundRect,0.279883X0.821717X-0.671717X0.821717X0.671717X-0.821717X0.671717X-0.821717X-0.671717X0*%
%ADD20O,2.203200X1.903200*%
%ADD21RoundRect,0.279883X0.796717X-0.671717X0.796717X0.671717X-0.796717X0.671717X-0.796717X-0.671717X0*%
%ADD22O,2.153200X1.903200*%
%ADD23RoundRect,0.101600X2.650000X-1.800000X2.650000X1.800000X-2.650000X1.800000X-2.650000X-1.800000X0*%
%ADD24RoundRect,0.265875X-1.435725X1.435725X-1.435725X-1.435725X1.435725X-1.435725X1.435725X1.435725X0*%
%ADD25C,3.403200*%
%ADD26C,2.003200*%
%ADD27RoundRect,0.101600X-0.900000X-0.900000X0.900000X-0.900000X0.900000X0.900000X-0.900000X0.900000X0*%
%ADD28RoundRect,0.275400X0.826200X-0.826200X0.826200X0.826200X-0.826200X0.826200X-0.826200X-0.826200X0*%
%ADD29RoundRect,0.101600X1.750000X1.800000X-1.750000X1.800000X-1.750000X-1.800000X1.750000X-1.800000X0*%
%ADD30RoundRect,0.800800X0.800800X1.100800X-0.800800X1.100800X-0.800800X-1.100800X0.800800X-1.100800X0*%
%ADD31RoundRect,0.925800X1.025800X0.925800X-1.025800X0.925800X-1.025800X-0.925800X1.025800X-0.925800X0*%
%ADD32RoundRect,0.101600X0.900000X0.800000X-0.900000X0.800000X-0.900000X-0.800000X0.900000X-0.800000X0*%
%ADD33RoundRect,0.265875X-1.435725X-1.435725X1.435725X-1.435725X1.435725X1.435725X-1.435725X1.435725X0*%
%ADD34RoundRect,0.101600X-0.900000X0.900000X-0.900000X-0.900000X0.900000X-0.900000X0.900000X0.900000X0*%
%ADD35RoundRect,0.281750X-0.619850X0.619850X-0.619850X-0.619850X0.619850X-0.619850X0.619850X0.619850X0*%
%ADD36RoundRect,0.101600X0.850000X0.850000X-0.850000X0.850000X-0.850000X-0.850000X0.850000X-0.850000X0*%
G04 APERTURE END LIST*
D10*
%TO.C,J4.2*%
X131000000Y-155618375D03*
D11*
X131000000Y-158158375D03*
X131000000Y-160698375D03*
X131000000Y-163238375D03*
%TD*%
D12*
%TO.C,J7*%
X69205000Y-92655000D03*
D11*
X71745000Y-92655000D03*
X74285000Y-92655000D03*
X76825000Y-92655000D03*
X79365000Y-92655000D03*
X81905000Y-92655000D03*
X84445000Y-92655000D03*
X86985000Y-92655000D03*
X89525000Y-92655000D03*
X92065000Y-92655000D03*
%TD*%
D13*
%TO.C,U3*%
X125339000Y-80145000D03*
D14*
X127879000Y-80145000D03*
X130419000Y-80145000D03*
X132959000Y-80145000D03*
X135499000Y-80145000D03*
X138039000Y-80145000D03*
X138039000Y-69605000D03*
X135499000Y-69605000D03*
X132959000Y-69605000D03*
X130419000Y-69605000D03*
X127879000Y-69605000D03*
X125339000Y-69605000D03*
%TD*%
D15*
%TO.C,S3*%
X135571000Y-38045000D03*
D16*
X135571000Y-36045000D03*
X135571000Y-34045000D03*
%TD*%
D17*
%TO.C,S4*%
X66919000Y-32732099D03*
D16*
X66919000Y-34732099D03*
X66919000Y-36732099D03*
%TD*%
D18*
%TO.C,C5*%
X119157129Y-41108059D03*
X121657129Y-41108059D03*
%TD*%
D15*
%TO.C,S11*%
X127395000Y-49903500D03*
D16*
X127395000Y-47903500D03*
X127395000Y-45903500D03*
%TD*%
D17*
%TO.C,S7*%
X74581000Y-74112999D03*
D16*
X74581000Y-76112999D03*
X74581000Y-78112999D03*
%TD*%
D10*
%TO.C,J3*%
X112855000Y-33605000D03*
D11*
X112855000Y-36145000D03*
X112855000Y-38685000D03*
X112855000Y-41225000D03*
X112855000Y-43765000D03*
X112855000Y-46305000D03*
X112855000Y-48845000D03*
X112855000Y-51385000D03*
X112855000Y-53925000D03*
X112855000Y-56465000D03*
X112855000Y-59005000D03*
X112855000Y-61545000D03*
X112855000Y-64085000D03*
X112855000Y-66625000D03*
X112855000Y-69165000D03*
X112855000Y-71705000D03*
X112855000Y-74245000D03*
X112855000Y-76785000D03*
X112855000Y-79325000D03*
X112855000Y-81865000D03*
%TD*%
D19*
%TO.C,J5*%
X66195000Y-156585000D03*
D20*
X66195000Y-154085000D03*
%TD*%
D17*
%TO.C,S14*%
X74613000Y-60285000D03*
D16*
X74613000Y-62285000D03*
X74613000Y-64285000D03*
%TD*%
D21*
%TO.C,S8*%
X69332000Y-111411000D03*
D22*
X69332000Y-108911000D03*
X69332000Y-106411000D03*
X69332000Y-103911000D03*
%TD*%
D23*
%TO.C,SW2*%
X67095000Y-139385000D03*
X67095000Y-133885000D03*
%TD*%
D24*
%TO.C,D3*%
X110395000Y-150185000D03*
D25*
X110395000Y-165425000D03*
%TD*%
D26*
%TO.C,U2*%
X74415000Y-162705000D03*
X74415000Y-165245000D03*
D27*
X74415000Y-152545000D03*
X74415000Y-155085000D03*
D26*
X92195000Y-162705000D03*
X92195000Y-165245000D03*
D27*
X92195000Y-152545000D03*
X92195000Y-155085000D03*
%TD*%
D17*
%TO.C,S10*%
X74613000Y-32732099D03*
D16*
X74613000Y-34732099D03*
X74613000Y-36732099D03*
%TD*%
D28*
%TO.C,C1*%
X87611000Y-143687000D03*
D14*
X87611000Y-138687000D03*
%TD*%
D15*
%TO.C,S1*%
X135499000Y-61762000D03*
D16*
X135499000Y-59762000D03*
X135499000Y-57762000D03*
%TD*%
D19*
%TO.C,J8*%
X136000000Y-129500000D03*
D20*
X136000000Y-127000000D03*
%TD*%
D24*
%TO.C,D4*%
X99695000Y-150185000D03*
D25*
X99695000Y-165425000D03*
%TD*%
D29*
%TO.C,J2*%
X119500000Y-142957500D03*
D30*
X125500000Y-142957500D03*
D31*
X122500000Y-138257500D03*
%TD*%
D15*
%TO.C,S2*%
X135595000Y-49903500D03*
D16*
X135595000Y-47903500D03*
X135595000Y-45903500D03*
%TD*%
D10*
%TO.C,J1*%
X83655000Y-33645000D03*
D11*
X83655000Y-36185000D03*
X83655000Y-38725000D03*
X83655000Y-41265000D03*
X83655000Y-43805000D03*
X83655000Y-46345000D03*
X83655000Y-48885000D03*
X83655000Y-51425000D03*
X83655000Y-53965000D03*
X83655000Y-56505000D03*
X83655000Y-59045000D03*
X83655000Y-61585000D03*
X83655000Y-64125000D03*
X83655000Y-66665000D03*
X83655000Y-69205000D03*
X83655000Y-71745000D03*
X83655000Y-74285000D03*
X83655000Y-76825000D03*
X83655000Y-79365000D03*
X83655000Y-81905000D03*
%TD*%
D18*
%TO.C,C4*%
X129385549Y-127107064D03*
X129385549Y-129607064D03*
%TD*%
%TO.C,C2*%
X78857000Y-144705000D03*
X78857000Y-142205000D03*
%TD*%
D32*
%TO.C,U1*%
X87935000Y-33665000D03*
D26*
X87935000Y-36205000D03*
X87935000Y-38745000D03*
X87935000Y-41285000D03*
X87935000Y-43825000D03*
X87935000Y-46365000D03*
X87935000Y-48905000D03*
X87935000Y-51445000D03*
X87935000Y-53985000D03*
X87935000Y-56525000D03*
X87935000Y-59065000D03*
X87935000Y-61605000D03*
X87935000Y-64145000D03*
X87935000Y-66685000D03*
X87935000Y-69225000D03*
X87935000Y-71765000D03*
X87935000Y-74305000D03*
X87935000Y-76845000D03*
X87935000Y-79385000D03*
X87935000Y-81925000D03*
D32*
X108255000Y-33665000D03*
D26*
X108255000Y-36205000D03*
X108255000Y-38745000D03*
X108255000Y-41285000D03*
X108255000Y-43825000D03*
X108255000Y-46365000D03*
X108255000Y-48905000D03*
X108255000Y-51445000D03*
X108255000Y-53985000D03*
X108255000Y-56525000D03*
X108255000Y-59065000D03*
X108255000Y-61605000D03*
X108255000Y-64145000D03*
X108255000Y-66685000D03*
X108255000Y-69225000D03*
X108255000Y-71765000D03*
X108255000Y-74305000D03*
X108255000Y-76845000D03*
X108255000Y-79385000D03*
D18*
X108255000Y-81925000D03*
%TD*%
D33*
%TO.C,D2*%
X96891000Y-139137000D03*
D25*
X112131000Y-139137000D03*
%TD*%
D18*
%TO.C,R2*%
X107305000Y-123770000D03*
X107305000Y-131390000D03*
%TD*%
D12*
%TO.C,J6*%
X108067000Y-92655000D03*
D11*
X110607000Y-92655000D03*
X113147000Y-92655000D03*
X115687000Y-92655000D03*
X118227000Y-92655000D03*
X120767000Y-92655000D03*
X123307000Y-92655000D03*
X125847000Y-92655000D03*
X128387000Y-92655000D03*
X130927000Y-92655000D03*
%TD*%
D34*
%TO.C,D5*%
X100955000Y-126183000D03*
D26*
X100955000Y-128723000D03*
%TD*%
D35*
%TO.C,C3*%
X122000000Y-127044888D03*
D18*
X122000000Y-129044888D03*
%TD*%
D27*
%TO.C,I6*%
X102773000Y-102961001D03*
D26*
X102773000Y-105501001D03*
X102773000Y-108041001D03*
X102773000Y-110581001D03*
X102773000Y-113121001D03*
X102773000Y-115661001D03*
D27*
X138333000Y-105501000D03*
D26*
X138333000Y-108041000D03*
X138333000Y-110581000D03*
X138333000Y-113121000D03*
%TD*%
D18*
%TO.C,C6*%
X119137129Y-44283059D03*
X121637129Y-44283059D03*
%TD*%
D17*
%TO.C,S5*%
X66919000Y-46485000D03*
D16*
X66919000Y-48485000D03*
X66919000Y-50485000D03*
%TD*%
D18*
%TO.C,FB1*%
X115000000Y-133000000D03*
X115000000Y-122840000D03*
%TD*%
D17*
%TO.C,S12*%
X74613000Y-46485000D03*
D16*
X74613000Y-48485000D03*
X74613000Y-50485000D03*
%TD*%
D18*
%TO.C,R1*%
X86500000Y-123770000D03*
X86500000Y-131390000D03*
%TD*%
D17*
%TO.C,S6*%
X66919000Y-60285000D03*
D16*
X66919000Y-62285000D03*
X66919000Y-64285000D03*
%TD*%
D15*
%TO.C,S13*%
X127371000Y-38045000D03*
D16*
X127371000Y-36045000D03*
X127371000Y-34045000D03*
%TD*%
D15*
%TO.C,S9*%
X127399000Y-61762000D03*
D16*
X127399000Y-59762000D03*
X127399000Y-57762000D03*
%TD*%
D34*
%TO.C,D1*%
X93000000Y-126183000D03*
D26*
X93000000Y-128723000D03*
%TD*%
D36*
%TO.C,J4*%
X120145000Y-163318375D03*
D11*
X120145000Y-160778375D03*
X120145000Y-158238375D03*
X120145000Y-155698375D03*
%TD*%
M02*
