M48
; DRILL file KiCad 10.0.1 date 2026-04-20T14:17:05
; FORMAT={-:-/ absolute / metric / decimal}
; #@! TF.CreationDate,2026-04-20T14:17:05+07:00
; #@! TF.GenerationSoftware,Kicad,Pcbnew,10.0.1
; #@! TF.FileFunction,MixedPlating,1,2
FMAT,2
METRIC
; #@! TA.AperFunction,Plated,PTH,ViaDrill
T1C0.610
; #@! TA.AperFunction,Plated,PTH,ComponentDrill
T2C0.750
; #@! TA.AperFunction,Plated,PTH,ComponentDrill
T3C0.800
; #@! TA.AperFunction,Plated,PTH,ComponentDrill
T4C0.900
; #@! TA.AperFunction,Plated,PTH,ComponentDrill
T5C0.950
; #@! TA.AperFunction,Plated,PTH,ComponentDrill
T6C1.000
; #@! TA.AperFunction,Plated,PTH,ComponentDrill
T7C1.600
; #@! TA.AperFunction,Plated,PTH,ComponentDrill
T8C1.800
%
G90
G05
T1
X78.486Y-155.194
X78.486Y-158.75
X78.486Y-162.306
X83.82Y-155.194
X83.82Y-158.75
X83.82Y-162.306
X84.074Y-141.224
X89.154Y-155.194
X89.154Y-158.75
X89.154Y-162.306
X93.472Y-81.026
X94.488Y-56.896
X94.488Y-64.516
X94.742Y-37.846
X94.742Y-48.26
X95.955Y-96.745
X97.775Y-96.745
X97.78Y-100.139
X99.568Y-156.21
X99.568Y-160.274
X100.095Y-72.485
X101.346Y-81.026
X101.6Y-37.846
X101.6Y-48.26
X101.854Y-64.516
X102.616Y-139.192
X107.442Y-139.192
X110.49Y-156.21
X110.49Y-160.274
X112.054Y-116.224
X112.308Y-102.0
X116.118Y-102.0
X116.118Y-116.224
X118.989Y-59.127
X119.37Y-84.4
X120.436Y-102.0
X120.436Y-116.224
X122.419Y-110.581
X124.5Y-102.0
X124.754Y-116.224
X126.081Y-156.268
X126.081Y-162.364
X127.0Y-77.47
X128.778Y-73.152
X129.072Y-116.224
X132.451Y-65.223
X132.588Y-73.152
X132.588Y-76.962
X133.136Y-116.224
X136.398Y-73.152
X136.398Y-76.962
X139.995Y-89.277
X143.933Y-68.271
T2
X66.919Y-32.732
X66.919Y-34.732
X66.919Y-36.732
X66.919Y-46.485
X66.919Y-48.485
X66.919Y-50.485
X66.919Y-60.285
X66.919Y-62.285
X66.919Y-64.285
X74.581Y-74.113
X74.581Y-76.113
X74.581Y-78.113
X74.613Y-32.732
X74.613Y-34.732
X74.613Y-36.732
X74.613Y-46.485
X74.613Y-48.485
X74.613Y-50.485
X74.613Y-60.285
X74.613Y-62.285
X74.613Y-64.285
X127.371Y-34.045
X127.371Y-36.045
X127.371Y-38.045
X127.395Y-45.904
X127.395Y-47.904
X127.395Y-49.904
X127.399Y-57.762
X127.399Y-59.762
X127.399Y-61.762
X135.499Y-57.762
X135.499Y-59.762
X135.499Y-61.762
X135.571Y-34.045
X135.571Y-36.045
X135.571Y-38.045
X135.595Y-45.904
X135.595Y-47.904
X135.595Y-49.904
T3
X78.857Y-142.205
X78.857Y-144.705
X86.5Y-123.77
X86.5Y-131.39
X107.305Y-123.77
X107.305Y-131.39
X115.0Y-122.84
X115.0Y-133.0
X119.137Y-44.283
X119.157Y-41.108
X121.637Y-44.283
X121.657Y-41.108
X122.0Y-127.045
X122.0Y-129.045
X129.386Y-127.107
X129.386Y-129.607
T4
X93.0Y-126.183
X93.0Y-128.723
X100.955Y-126.183
X100.955Y-128.723
T5
X69.332Y-103.911
X69.332Y-106.411
X69.332Y-108.911
X69.332Y-111.411
T6
X66.195Y-154.085
X66.195Y-156.585
X69.205Y-92.655
X71.745Y-92.655
X74.285Y-92.655
X74.415Y-152.545
X74.415Y-155.085
X74.415Y-162.705
X74.415Y-165.245
X76.825Y-92.655
X79.365Y-92.655
X81.905Y-92.655
X83.655Y-33.645
X83.655Y-36.185
X83.655Y-38.725
X83.655Y-41.265
X83.655Y-43.805
X83.655Y-46.345
X83.655Y-48.885
X83.655Y-51.425
X83.655Y-53.965
X83.655Y-56.505
X83.655Y-59.045
X83.655Y-61.585
X83.655Y-64.125
X83.655Y-66.665
X83.655Y-69.205
X83.655Y-71.745
X83.655Y-74.285
X83.655Y-76.825
X83.655Y-79.365
X83.655Y-81.905
X84.445Y-92.655
X86.985Y-92.655
X87.611Y-138.687
X87.611Y-143.687
X87.935Y-33.665
X87.935Y-36.205
X87.935Y-38.745
X87.935Y-41.285
X87.935Y-43.825
X87.935Y-46.365
X87.935Y-48.905
X87.935Y-51.445
X87.935Y-53.985
X87.935Y-56.525
X87.935Y-59.065
X87.935Y-61.605
X87.935Y-64.145
X87.935Y-66.685
X87.935Y-69.225
X87.935Y-71.765
X87.935Y-74.305
X87.935Y-76.845
X87.935Y-79.385
X87.935Y-81.925
X89.525Y-92.655
X92.065Y-92.655
X92.195Y-152.545
X92.195Y-155.085
X92.195Y-162.705
X92.195Y-165.245
X102.773Y-102.961
X102.773Y-105.501
X102.773Y-108.041
X102.773Y-110.581
X102.773Y-113.121
X102.773Y-115.661
X108.067Y-92.655
X108.255Y-33.665
X108.255Y-36.205
X108.255Y-38.745
X108.255Y-41.285
X108.255Y-43.825
X108.255Y-46.365
X108.255Y-48.905
X108.255Y-51.445
X108.255Y-53.985
X108.255Y-56.525
X108.255Y-59.065
X108.255Y-61.605
X108.255Y-64.145
X108.255Y-66.685
X108.255Y-69.225
X108.255Y-71.765
X108.255Y-74.305
X108.255Y-76.845
X108.255Y-79.385
X108.255Y-81.925
X110.607Y-92.655
X112.855Y-33.605
X112.855Y-36.145
X112.855Y-38.685
X112.855Y-41.225
X112.855Y-43.765
X112.855Y-46.305
X112.855Y-48.845
X112.855Y-51.385
X112.855Y-53.925
X112.855Y-56.465
X112.855Y-59.005
X112.855Y-61.545
X112.855Y-64.085
X112.855Y-66.625
X112.855Y-69.165
X112.855Y-71.705
X112.855Y-74.245
X112.855Y-76.785
X112.855Y-79.325
X112.855Y-81.865
X113.147Y-92.655
X115.687Y-92.655
X118.227Y-92.655
X120.145Y-155.698
X120.145Y-158.238
X120.145Y-160.778
X120.145Y-163.318
X120.767Y-92.655
X123.307Y-92.655
X125.339Y-69.605
X125.339Y-80.145
X125.847Y-92.655
X127.879Y-69.605
X127.879Y-80.145
X128.387Y-92.655
X130.419Y-69.605
X130.419Y-80.145
X130.927Y-92.655
X131.0Y-155.618
X131.0Y-158.158
X131.0Y-160.698
X131.0Y-163.238
X132.959Y-69.605
X132.959Y-80.145
X135.499Y-69.605
X135.499Y-80.145
X136.0Y-127.0
X136.0Y-129.5
X138.039Y-69.605
X138.039Y-80.145
X138.333Y-105.501
X138.333Y-108.041
X138.333Y-110.581
X138.333Y-113.121
T7
X96.891Y-139.137
X99.695Y-150.185
X99.695Y-165.425
X110.395Y-150.185
X110.395Y-165.425
X112.131Y-139.137
T6
G00X119.5Y-143.957
M15
G01X119.5Y-141.957
M16
G05
G00X123.5Y-138.257
M15
G01X121.5Y-138.257
M16
G05
G00X125.5Y-143.957
M15
G01X125.5Y-141.957
M16
G05
T8
G00X65.895Y-133.885
M15
G01X68.295Y-133.885
M16
G05
G00X65.895Y-139.385
M15
G01X68.295Y-139.385
M16
G05
M30
